<svg id="Layer_1" data-name="Layer 1" xmlns="http://www.w3.org/2000/svg" viewBox="0 0 140 44.4"><defs><style>.cls-1{fill:#576087;}.cls-2{fill:#f6b595;}</style></defs><g id="Layer_11" data-name="Layer 11"><g id="Zebra"><g id="Name"><path class="cls-1" d="M60.4,25.3a4.6,4.6,0,0,1-3,4.4,7.7,7.7,0,0,1-3.4.7,7.5,7.5,0,0,1-3.9-.9,3.9,3.9,0,0,1-1.8-1.8,3.1,3.1,0,0,1-.7-2A1.5,1.5,0,0,1,49,24.2h0a1.2,1.2,0,0,1,.9.3,2.7,2.7,0,0,1,.6,1,5.4,5.4,0,0,0,.7,1.3,2.2,2.2,0,0,0,1,.9,4.7,4.7,0,0,0,1.7.3,3.8,3.8,0,0,0,2.4-.7,2.2,2.2,0,0,0,.9-1.7,2.1,2.1,0,0,0-.5-1.3,3.3,3.3,0,0,0-1.3-.7,8.3,8.3,0,0,0-2.1-.6,11.1,11.1,0,0,1-2.9-1,4.9,4.9,0,0,1-1.8-1.4,4,4,0,0,1-.7-2.4,3.9,3.9,0,0,1,.7-2.3,5.4,5.4,0,0,1,2.1-1.6,9.6,9.6,0,0,1,3.3-.6,10.9,10.9,0,0,1,2.5.4,4,4,0,0,1,1.8,1,3.5,3.5,0,0,1,1.1,1.3,2.8,2.8,0,0,1,.3,1.3,1.8,1.8,0,0,1-.4,1,1.6,1.6,0,0,1-1.1.5,1.1,1.1,0,0,1-.8-.3,2.4,2.4,0,0,1-.6-.9,3.8,3.8,0,0,0-1.1-1.4,2.7,2.7,0,0,0-2-.5,2.9,2.9,0,0,0-2,.5,1.7,1.7,0,0,0-.8,1.4,1.3,1.3,0,0,0,.3.8l.7.6.9.4,1.6.4,2.5.7a6.1,6.1,0,0,1,1.8.9A5.7,5.7,0,0,1,60,23.2,5.2,5.2,0,0,1,60.4,25.3Z"/><path class="cls-1" d="M73.6,16.7H70.1V28.4a2.1,2.1,0,0,1-.5,1.5,1.7,1.7,0,0,1-1.2.5,1.6,1.6,0,0,1-1.1-.5,1.7,1.7,0,0,1-.5-1.5V16.7H63.3a2,2,0,0,1-1.3-.4,1.1,1.1,0,0,1-.4-.9,1.2,1.2,0,0,1,.4-1,2,2,0,0,1,1.3-.4H73.6a1.7,1.7,0,0,1,1.3.4,1.2,1.2,0,0,1,.4,1,1.5,1.5,0,0,1-.4.9A2,2,0,0,1,73.6,16.7Z"/><path class="cls-1" d="M81.6,23.2H80.5v5.2a2.1,2.1,0,0,1-.5,1.5,1.7,1.7,0,0,1-1.2.5,1.8,1.8,0,0,1-1.2-.5,2.4,2.4,0,0,1-.4-1.5V16a2.1,2.1,0,0,1,.5-1.5,2.1,2.1,0,0,1,1.5-.5h7.2l1.4.4a3.8,3.8,0,0,1,1.3.9,4.2,4.2,0,0,1,.9,1.4,4.5,4.5,0,0,1,.3,1.6,3.9,3.9,0,0,1-1,2.9,6.9,6.9,0,0,1-3.1,1.6,7,7,0,0,1,1.7,1.3,13.3,13.3,0,0,1,1.4,1.9c.3.6.7,1.2,1,1.9a3.5,3.5,0,0,1,.3,1.1,1.4,1.4,0,0,1-.2.6,1,1,0,0,1-.6.5l-.8.2-.9-.3c-.3-.1-.5-.4-.7-.6a8.8,8.8,0,0,0-.7-1.2l-1.3-2.2a18.8,18.8,0,0,0-1.2-1.8,2.5,2.5,0,0,0-1.2-.8A3.2,3.2,0,0,0,81.6,23.2Zm1.9-6.8H80.4v4.5h3l2-.2a2.9,2.9,0,0,0,1.2-.7,2.3,2.3,0,0,0,.4-1.4,2.7,2.7,0,0,0-.3-1.2,2.3,2.3,0,0,0-1-.7A5.4,5.4,0,0,0,83.5,16.4Z"/><path class="cls-1" d="M96.1,28.4V23.3l-3.9-6.1a5.4,5.4,0,0,1-.7-1.3,1.1,1.1,0,0,1-.2-.8,1.3,1.3,0,0,1,.4-1,2.1,2.1,0,0,1,1.1-.4,1.4,1.4,0,0,1,1,.4l1,1.5,3,4.9,3.1-4.9.4-.7.4-.6.5-.4a1.5,1.5,0,0,1,1.7.2,1.4,1.4,0,0,1,.5,1,1.1,1.1,0,0,1-.3.8,7.5,7.5,0,0,1-.7,1.2l-4,6.2v5.1a2.1,2.1,0,0,1-.5,1.5,1.7,1.7,0,0,1-1.2.5,1.6,1.6,0,0,1-1.1-.5A2.1,2.1,0,0,1,96.1,28.4Z"/><path class="cls-1" d="M112.8,23.8h-2.9v4.6a2.5,2.5,0,0,1-.5,1.5,1.7,1.7,0,0,1-2.3,0H107a2.6,2.6,0,0,1-.4-1.5V16a2.1,2.1,0,0,1,.5-1.5,1.9,1.9,0,0,1,1.6-.5h4.1a13.6,13.6,0,0,1,2.9.3,5.6,5.6,0,0,1,1.7.9,4.6,4.6,0,0,1,1.1,1.6,4.5,4.5,0,0,1,.4,2,4.5,4.5,0,0,1-1.6,3.8A7.1,7.1,0,0,1,112.8,23.8Zm-.7-7.4h-2.2v5h2.2a6.3,6.3,0,0,0,1.9-.3,2,2,0,0,0,1.2-.8,2.3,2.3,0,0,0,.4-1.4,2.5,2.5,0,0,0-.6-1.7A4.2,4.2,0,0,0,112.1,16.4Z"/><path class="cls-1" d="M132.2,16.5h-7.3v4h6.7a1.4,1.4,0,0,1,1.1.3,1.2,1.2,0,0,1,0,1.8,1.4,1.4,0,0,1-1.1.3h-6.7v4.6h7.6a1.5,1.5,0,0,1,1.1.4,1.1,1.1,0,0,1,.4.9,1,1,0,0,1-.4.9,1.5,1.5,0,0,1-1.1.4h-8.9a1.8,1.8,0,0,1-2-2V16a5,5,0,0,1,.2-1.2,1.4,1.4,0,0,1,.7-.6l1.1-.2h8.6a2.7,2.7,0,0,1,1.2.3c.2.3.4.6.3.9a1.2,1.2,0,0,1-.3,1A2.7,2.7,0,0,1,132.2,16.5Z"/><path class="cls-2" d="M138.4,30.4a1.8,1.8,0,0,1-1.2-.5,1.7,1.7,0,0,1-.5-1.2,1.6,1.6,0,0,1,.5-1.1,1.3,1.3,0,0,1,1.1-.5,1.6,1.6,0,0,1,1.2.4,1.6,1.6,0,0,1,0,2.4A1.6,1.6,0,0,1,138.4,30.4Z"/></g><g id="Zebra-2"><g id="Stripes"><path class="cls-1" d="M37.4,19.7c4.7,31.2-11,13.1-16.4,24.7L20.8,39c1.3-7.5,21.5,4.2,13.4-22.2a7.4,7.4,0,0,0,4.7-5.1l3.8,4.1A7.5,7.5,0,0,1,37.4,19.7Z"/><path class="cls-1" d="M32.9,15.3A6.2,6.2,0,0,0,37,10.1L32.7,7.3c-.4,2.2-.8,4.7-3,4.8,6.9,24.5-8.2,18-9.2,21.7v3.8C26,26.7,36.6,43.1,32.9,15.3Z"/><path class="cls-1" d="M28.1,11.5,25,10.3c2.6,7.5,3.1,13,1.4,16.5-.3.5-.9.3-.9-.4,1.5-5,.3-10.9-1.7-16.5l-1.7-.2c3.8,12,3.2,18.1-2,20.7l.2,2.8C26.2,28,31.6,32.7,28.1,11.5Z"/><path class="cls-1" d="M.8,32.2c-.4,3.2.3,3.7,2.5,3.4a2.5,2.5,0,0,0,3.4.2c1.8-.1,2.7-.6,2.9-2.6s.6-.8,1.3-.7,1.2-2.4.6-.7,1.1.8,1.8,0c1.7-2.7-5.7-2.2-3.9,0-1.8,1.5-3.1-2.6-.8-3.8a27.8,27.8,0,0,0,9.4.3c.5,1,.1,1.7-1,1.9s-2.8-1.6-3-.1-.1,1.9.3,1.8,4.1-.4,5.5-1a.9.9,0,0,1,0-1c3.4-1.9,5.3-7.1,1.9-14.3v3.1c3,6-.7,9.5-1.2,10.2s-.6.2-.4-.2c1.7-2,2.1-3.1,1.6-6.6a.4.4,0,0,1-.4.4H19.7a.3.3,0,0,1-.3-.3h0v-2c-.9-.3-1.4-.4-1.7-.8.2-2.8-2.1-2.4-1.7-6.8-1.5,1.4-1.1,4.2-2.7,5.8a5.4,5.4,0,0,1,2.5.3,4.9,4.9,0,0,1-.4-3.9c4.8,9-3.4,6.1-5.7,8.2v-.5c0-.3,0-.4-.4-.3L5.2,26.1c-.3.3-.6,0-.3-.3,3.6-5.7,5.6-2,7.3-10.6,0-.3-.1-.4-.3-.4l-.2.2c.6-.7.2-2.4,1.2-3.1s-.4,1.9,0,2.2a5.3,5.3,0,0,1,2-1.8,1.5,1.5,0,0,0,0-1.6c-.3-.3-.6-.7-.3-1s.6-.2.4-.7-1.6-2.9-1.5-6.3c0-.1.1-.3.4,0A10.6,10.6,0,0,1,16.6,11c-.1.2.6.3.9.1l.5-.5a1.7,1.7,0,0,1,.2,1.3c-2.7.9-2.1,2.1-.2,4.4a.8.8,0,0,1,.4.7c-1.6.6-.3,1.2,1,1.4V16.1c-1.6-1.7-1-1.9,0-1V9.7H18c.6-2.9-1.5-7.3-4.6-9.6h-.6c-.7,4.8.1,8.6,1.4,9.4s-.1.5-.3.2-2-4.6-1.5-8.6L2.6.7c-1-.1-1,.4-.5.6l9.1,2c-.6,2.7-.5,6.9-.2,11.2-.8,2.6-4.5,3.1-4.9,7a3.3,3.3,0,0,0-1.2,2C1.8,27.7-1.5,30.9.8,32.2Zm18-8.4c-1.6,4.2-4.4,3.4-10.1,3.4a13.6,13.6,0,0,1,2.1-1c4.7.5,6.7-.5,7.6-4.6,2.9,2.3,1.9,4.6,1.7,5.7-.6-.5.1-2.1-.7-4.1S18.8,23.6,18.8,23.8ZM7.5,27c-.7.6-1.4-.2-.9-.8,6.6-5.1,3.6-.1,9.7-4.4C16.2,26.6,11.3,23.3,7.5,27ZM4.6,25.1c-.2.2-.3-.3-.3-.3s3.7-4.6,7-9.6a.2.2,0,0,1,.3.1C9.4,19.9,7.1,21.2,4.6,25.1ZM3.1,30.7c-.3.1-.4,0-.4-.1s1.6-.1,1.6,1a.2.2,0,0,1-.3,0q0-1.4-.9-.9Z"/><path class="cls-1" d="M13.8,14c-1.2,2-1.8,3-1.6,3.7h.6c1.2-.1,1.5-1.5,1.4-3.7C14.1,13.7,14,13.7,13.8,14Z"/><path class="cls-1" d="M11.3,29.3a6.2,6.2,0,0,0-3.2,1.4c-.3-.3-.5-.7,0-1.4s2.1-.9,3.3-.4S11.5,29.3,11.3,29.3Z"/><path id="left_ear" data-name="left ear" class="cls-1" d="M10.7,8c-.1.4-.8.1-.8,0,.6-3.1-1.2-2.2-.9-3.9s-.4-.3-.5.1.7,4.6,1.8,4.2,0,.8-.4.7A5.7,5.7,0,0,1,7.7,2.8c.1-.2.1-.1.4,0s2.2.8,2.7,1.6Z"/></g><g id="Tassel"><circle class="cls-2" cx="20.6" cy="4" r="1"/><rect class="cls-2" x="20.1" y="4.6" width="0.8" height="2.46"/><circle class="cls-2" cx="20.6" cy="3" r="0.3"/><rect class="cls-2" x="19.8" y="6.8" width="1.4" height="15.37" rx="0.4"/><polygon class="cls-2" points="20.4 1.4 20.7 1.4 20.7 2.9 20.4 2.9 20.4 1.4"/></g><g id="Mortarboard"><path class="cls-1" d="M21,2.6a1.3,1.3,0,0,1,.9.7,1.5,1.5,0,0,1-.6,2h0V6.8c.6.1.3.6.4,3.2,3.3,0,6,1.5,8.6,3.2a18.9,18.9,0,0,0,1.2-7.4L37.6,5c.2-.1.2-.4,0-.4L21,1.4Z"/><path class="cls-1" d="M20.2,1.3V2.6a1.5,1.5,0,0,0-.4,2.7V6.8c-.6.1-.3.4-.4,2.9H18.2c.5-3.3-.8-5.7-3.3-8.6Z"/></g></g></g></g></svg>