<svg id="Layer_1" data-name="Layer 1" xmlns="http://www.w3.org/2000/svg" viewBox="0 0 603.6 191.5"><defs><style>.cls-1{fill:#576087;}.cls-2{fill:#f6b595;}</style></defs><g id="Layer_11" data-name="Layer 11"><g id="Zebra"><g id="Name"><path class="cls-1" d="M260.4,108.9a20.4,20.4,0,0,1-12.8,19.2,35.9,35.9,0,0,1-14.8,2.9c-6.9,0-12.5-1.3-17-3.9a22.1,22.1,0,0,1-7.7-7.5,17,17,0,0,1-3-9,6.1,6.1,0,0,1,6.1-6.2h.2a5,5,0,0,1,3.8,1.4,12.9,12.9,0,0,1,2.6,4.2,24.2,24.2,0,0,0,2.9,5.5,10.9,10.9,0,0,0,4.3,3.7,14.3,14.3,0,0,0,7.3,1.4c4.2,0,7.6-.9,10.2-2.9a8.7,8.7,0,0,0,3.9-7.2,8.1,8.1,0,0,0-2.1-5.7,12.7,12.7,0,0,0-5.5-3.2,90.8,90.8,0,0,0-8.9-2.5A61,61,0,0,1,217.4,95a20.6,20.6,0,0,1-8-6.3,16.7,16.7,0,0,1-3-10.1,17.3,17.3,0,0,1,3.2-10.1,20,20,0,0,1,9.1-6.9,36.7,36.7,0,0,1,13.9-2.4,37.7,37.7,0,0,1,11.1,1.6,23.2,23.2,0,0,1,7.7,4.2,17,17,0,0,1,4.5,5.5,12.6,12.6,0,0,1,1.4,5.7,6.3,6.3,0,0,1-1.8,4.5,5.7,5.7,0,0,1-4.4,2,5.2,5.2,0,0,1-3.7-1.2,15.6,15.6,0,0,1-2.7-4,17.9,17.9,0,0,0-4.5-6.1c-1.8-1.5-4.6-2.2-8.5-2.2a15,15,0,0,0-8.8,2.4c-2.3,1.6-3.4,3.5-3.4,5.8a6.2,6.2,0,0,0,1.2,3.6,11.3,11.3,0,0,0,3.1,2.6,28.3,28.3,0,0,0,4,1.7l6.7,1.8a92.2,92.2,0,0,1,10.6,3,30.6,30.6,0,0,1,8.1,4,17.1,17.1,0,0,1,5.3,6A20.5,20.5,0,0,1,260.4,108.9Z"/><path class="cls-1" d="M317.4,72H302v50.4c0,2.9-.7,5.1-2,6.5a6.6,6.6,0,0,1-5,2.1,6.5,6.5,0,0,1-5-2.2c-1.4-1.4-2-3.5-2-6.4V72H272.7a8.3,8.3,0,0,1-5.4-1.6,5.2,5.2,0,0,1-1.7-4.2,5.5,5.5,0,0,1,1.8-4.3,7.7,7.7,0,0,1,5.3-1.5h44.7c2.4,0,4.2.5,5.4,1.6a5.4,5.4,0,0,1,1.8,4.2,5.6,5.6,0,0,1-1.8,4.2A8.8,8.8,0,0,1,317.4,72Z"/><path class="cls-1" d="M351.8,100.1h-4.9v22.3c0,2.9-.7,5.1-2,6.5a6.7,6.7,0,0,1-5,2.1,6.4,6.4,0,0,1-5.2-2.2c-1.3-1.5-1.9-3.6-1.9-6.4V69c0-3,.7-5.2,2-6.6s3.5-2,6.6-2h22.9a73.2,73.2,0,0,1,8.1.4,21.3,21.3,0,0,1,6,1.6,17.7,17.7,0,0,1,5.8,4,16.2,16.2,0,0,1,3.8,5.9,19.5,19.5,0,0,1,1.3,7.2c0,5.2-1.4,9.3-4.4,12.4s-7.3,5.3-13.2,6.6a26.6,26.6,0,0,1,7.1,5.8,61,61,0,0,1,6.1,8.3,59.8,59.8,0,0,1,4.2,7.9,14,14,0,0,1,1.5,4.9,4.6,4.6,0,0,1-.9,2.7,6.1,6.1,0,0,1-2.4,2.1,8.5,8.5,0,0,1-3.5.8,7.1,7.1,0,0,1-4-1.1,12.4,12.4,0,0,1-2.8-2.8c-.7-1.2-1.8-2.8-3.1-5l-5.6-9.4a53.2,53.2,0,0,0-5.5-7.9,13.5,13.5,0,0,0-4.8-3.7A16.5,16.5,0,0,0,351.8,100.1Zm8-29.2h-13V90h12.6a31.1,31.1,0,0,0,8.6-.9,9.2,9.2,0,0,0,5.2-3,8.6,8.6,0,0,0,1.9-5.8,9.2,9.2,0,0,0-1.5-5.1,9.6,9.6,0,0,0-4.1-3.3C367.9,71.3,364.7,70.9,359.8,70.9Z"/><path class="cls-1" d="M414.5,122.4v-22l-17-26.3a60.5,60.5,0,0,1-3.2-5.5,8.6,8.6,0,0,1-.9-3.5,5.7,5.7,0,0,1,1.9-4.2,6.4,6.4,0,0,1,4.6-1.7,6,6,0,0,1,4.4,1.6,67.5,67.5,0,0,1,4.4,6.5l13,21.1,13.1-21.1,2-3.2,1.8-2.5a9.6,9.6,0,0,1,2.2-1.8,6.8,6.8,0,0,1,7.3,1.1,5.5,5.5,0,0,1,1.8,4,7.8,7.8,0,0,1-.9,3.7,43.3,43.3,0,0,1-3.1,5.1l-17.4,26.7v22c0,2.9-.7,5-2,6.4a6.9,6.9,0,0,1-5.1,2.2,6.7,6.7,0,0,1-5-2.1C415.1,127.5,414.5,125.3,414.5,122.4Z"/><path class="cls-1" d="M486.5,102.7H473.6v19.7c0,2.8-.6,4.9-2,6.4a7,7,0,0,1-9.9.2l-.2-.2a9.3,9.3,0,0,1-1.9-6.3V69c0-3.1.7-5.3,2.1-6.7s3.7-2,6.8-2h18a46.4,46.4,0,0,1,12.3,1.3,19.6,19.6,0,0,1,7.4,3.9,20.8,20.8,0,0,1,4.7,6.7,25.5,25.5,0,0,1,1.6,9c0,7.1-2.2,12.5-6.6,16.1S495.1,102.8,486.5,102.7Zm-3.4-31.8h-9.5V92.1h9.5a25.9,25.9,0,0,0,8.3-1,9.3,9.3,0,0,0,5.1-3.4,9.8,9.8,0,0,0,1.8-6.2,11,11,0,0,0-2.7-7.5C493.6,72,489.4,70.9,483.1,70.9Z"/><path class="cls-1" d="M570,71.2H538.3V88.3h29.2a6.5,6.5,0,0,1,4.8,1.4,4.7,4.7,0,0,1,1.6,3.8,5.1,5.1,0,0,1-1.6,3.9,6.9,6.9,0,0,1-4.8,1.5H538.3v19.7h32.8a7.4,7.4,0,0,1,5,1.5,5.4,5.4,0,0,1,1.7,4.1,5.3,5.3,0,0,1-1.7,4,7,7,0,0,1-5,1.6H532.9c-3.1,0-5.3-.7-6.6-2s-2-3.5-2-6.6V69a10.8,10.8,0,0,1,.9-5,5.1,5.1,0,0,1,2.8-2.8,13.7,13.7,0,0,1,4.9-.9H570a7.4,7.4,0,0,1,5,1.5,4.8,4.8,0,0,1,1.6,3.9,5,5,0,0,1-1.6,4A7.4,7.4,0,0,1,570,71.2Z"/><path class="cls-2" d="M596.6,131a7.8,7.8,0,0,1-5-1.9,6.7,6.7,0,0,1-2.2-5.3,7,7,0,0,1,2-5,6.9,6.9,0,0,1,5-2.1,7.3,7.3,0,0,1,5.1,2,7.4,7.4,0,0,1,0,10.3A7,7,0,0,1,596.6,131Z"/></g><g id="Zebra-2"><g id="Stripes"><path class="cls-1" d="M161.2,84.8c20.1,134.7-47.6,56.4-70.8,106.7L89.5,168c5.6-32.3,92.9,18.3,57.9-95.8,12-4.8,17.9-12.4,20.1-21.9L184.2,68C180,75.7,173.5,82,161.2,84.8Z"/><path class="cls-1" d="M142,66c10.3-4,15.9-11.8,17.6-22.5L141,31.4c-1.8,9.7-3.6,20.4-13.1,20.9,29.7,105.7-35.1,77.6-39.4,93.2v16.6C112.2,115.3,157.8,185.7,142,66Z"/><path class="cls-1" d="M121.1,49.5l-13.5-5.2C119,76.8,121,100.4,114,115.5c-1.5,2.2-4.1,1.3-4.2-1.9,6.6-21.3,1.2-46.9-7.4-71L95.1,42c16.4,51.7,13.9,77.8-8.6,89.2l.8,11.9C112.9,120.9,136.1,140.9,121.1,49.5Z"/><path class="cls-1" d="M3.2,138.9c-1.6,13.5,1.7,16,10.8,14.6,4.3,4,9,4.9,14.9,1,7.9-.4,11.8-2.9,12.4-11.4.7-2.8,2.7-3.5,5.5-2.9.1-5.5,5.2-10.3,2.9-2.9-.5,4.2,4.7,3.2,7.8-.1,7.1-11.7-24.6-9.8-16.8-.3-7.8,6.7-13.4-11-3.5-16,15.3,2.9,30.8,2.9,40.2.9,2.3,4.5.8,7.6-4.1,8.6-2.3-5.3-12.1-7.2-12.9-.6-.3,3.5-.5,8.1,1,7.8,6.7-5.7,17.8-2,24-4.4-1.1-1.6-1-2.9,0-4.1,14.5-8.2,22.8-30.7,8-61.9l.2,13.4c12.7,26-3,40.8-5.1,44.2-1,1.5-2.9.6-1.8-1.1,7.1-8.8,9-13.3,6.7-28.6.1,1.1-.5,2.1-1.5,2.1H85a1.5,1.5,0,0,1-1.4-1.7V87.1c-3.8-1.2-6-1.7-7.3-3.4.7-12.2-9.1-10.6-7.5-29.5-6.2,6.1-4.4,18.1-11.6,25a26,26,0,0,1,10.7,1.5c-2.5-3.5-3.1-10.1-1.4-16.9,20.7,38.7-15,26.1-24.9,35.3l.7-2.3c.1-.9-.3-1.4-1.6-1.1l-18.2,17c-1.3,1-2.6,0-1.5-1.6,15.5-24.4,24.1-8.3,31.4-45.4.2-1.3-.3-2-1-1.8l-1.1.6c2.7-3,1.1-10.3,5.2-13.2.9,1.8-1.8,8.2-.1,9.5,3-4.1,6-6.9,8.8-7.7a6.8,6.8,0,0,0,.2-6.9c-1.7-1.3-2.6-2.9-1.3-4.2s2.4-1,1.4-3.1C59,36.8,57.6,26.1,58,11.6c0-.4.7-1.2,1.7.1,10.5,12,12.7,23.1,11.7,35.5-.2,1.2,2.7,1.7,3.8.8l2.2-2.4q1.8,1.8.9,5.7c-11.3,3.9-9,9-.9,18.8a3.3,3.3,0,0,1,1.8,3.2c-7,2.5-1.4,5.3,4.4,6.1V69.3c-6.7-7.3-4.5-8.1,0-4V42H77.4C80,29.5,71.1,10.3,57.7.3a2.1,2.1,0,0,0-2.5.2c-3,20.5.3,37,6.1,40.5.6.6-.5,2-1.4.8-6.3-7.5-8.7-19.9-6.3-37.1L11.1,2.8C6.8,2.5,6.8,4.9,8.8,5.6l39.6,8.5c-2.8,11.9-2.2,29.7-1,48.5C44,73.8,27.9,75.7,26.2,92.6c-2.8,3-5.1,6-5.1,8.9C7.7,119.4-6.6,133,3.2,138.9Zm77.7-36.2c-6.8,17.8-19,14.5-43.6,14.5a50.6,50.6,0,0,1,9.2-4.1c20.4,2.1,28.9-2.1,32.7-20.2,12.5,10,8.5,20.2,7.3,24.7-2.4-2,.4-9.1-3.1-17.4-.4-2.8-2.2,1.7-2.5,2.5ZM32.4,116.2c-3.2,2.6-6.1-.7-4.1-3.3,28.6-21.8,15.7-.5,42-19.1-.5,20.9-21.8,6.5-37.9,22.4ZM19.8,108c-1,1-1.5-1-1.5-1s16-20.1,30.4-41.5c.6-.6,1.4.1,1.1.6-9.1,19.7-19.1,25.1-30,41.9Zm-6.5,24.5c-1.1.3-1.6,0-1.8-.8,5.3-2.6,7.1-.3,7.2,4.4,0,1-1.3,1.2-1.6,0,.2-3.7-1-4.9-3.8-3.6Z"/><path class="cls-1" d="M59.6,60.4c-5.1,8.7-7.9,12.8-7.1,15.7a11.3,11.3,0,0,0,2.6,0c5.3-.1,6.6-6.3,5.9-15.7C60.8,59.2,60.4,59.1,59.6,60.4Z"/><path class="cls-1" d="M48.5,126.4a24.9,24.9,0,0,0-13.7,6.1c-1.4-1.3-1.9-3.1,0-6.2,4.1-4.2,9.1-4,14.4-1.8C50.3,125.2,49.4,126.3,48.5,126.4Z"/><path id="left_ear" data-name="left ear" class="cls-1" d="M45.9,34.6c-.2,1.6-3.1.5-3.2-.2,2.5-13.1-5.4-9.4-4.1-16.7-.6-1.8-1.5-1.4-2,.4-1.9,7.3,3.2,19.7,7.6,18.2,1.1,2.5.1,3.2-1.7,3.1C34.4,34.2,30,22.4,33,11.9c.4-.5.7-.3,1.9,0,6,2.2,9.4,3.7,11.7,7Z"/></g><g id="Tassel"><circle class="cls-2" cx="88.7" cy="17.2" r="4.1"/><rect class="cls-2" x="86.7" y="19.7" width="3.6" height="10.59"/><circle class="cls-2" cx="88.7" cy="13" r="1.1"/><rect class="cls-2" x="85.5" y="29.5" width="6.1" height="66.26" rx="1.7"/><polygon class="cls-2" points="88.1 5.8 89.4 6 89.3 12.3 88.1 12.3 88.1 5.8"/></g><g id="Mortarboard"><path class="cls-1" d="M90.7,11.1a6.6,6.6,0,0,1,3.6,3,6.4,6.4,0,0,1-2.5,8.8v6.6c2.5.4,1.3,2.2,1.6,13.6,14.4-.1,25.9,6.5,37.2,13.6a79.6,79.6,0,0,0,5-31.7l26.5-3.6c.7-.2.8-1.6,0-1.8L90.6,6.2C90.6,9.3,90.6,6.7,90.7,11.1Z"/><path class="cls-1" d="M86.9,5.7V11c-4.2,1.2-7.1,7.8-1.6,11.7v6.8c-2.6.4-1.4,1.5-1.7,12.5H78.4c2.1-14.5-3.6-24.8-14-37.1Z"/></g></g></g></g></svg>