<svg id="Layer_1" data-name="Layer 1" xmlns="http://www.w3.org/2000/svg" viewBox="0 0 617.4 191.5"><defs><style>.cls-1,.cls-2{fill:#576087;}.cls-2{stroke:#576087;stroke-width:0.25px;}.cls-3{fill:#f6b595;}</style></defs><g id="Layer_11" data-name="Layer 11"><g id="Zebra"><g id="Slogan"><path class="cls-1" d="M267.9,143.4V130.9h9v1.5h-7.4v3.8h6.9v1.5h-6.9V142h7.7v1.4Z"/><path class="cls-1" d="M285.4,142.3a5.4,5.4,0,0,1-1.6,1l-1.7.3a3,3,0,0,1-2.3-.7,2.5,2.5,0,0,1-.5-3.1,3.2,3.2,0,0,1,.8-.9l1.1-.5,1.3-.2,2.8-.5v-.4a2.3,2.3,0,0,0-.4-1.4,4.1,4.1,0,0,0-1.8-.5,2.9,2.9,0,0,0-1.6.4,2.5,2.5,0,0,0-.8,1.4l-1.5-.3a4.1,4.1,0,0,1,.7-1.5,2.6,2.6,0,0,1,1.4-.9,3.4,3.4,0,0,1,2-.3,4,4,0,0,1,1.9.2,4.1,4.1,0,0,1,1.1.7,3.7,3.7,0,0,1,.5,1.1v3.4a24.4,24.4,0,0,0,.1,2.7,3.6,3.6,0,0,0,.4,1.1h-1.6A2,2,0,0,1,285.4,142.3Zm-.1-3.4a11.4,11.4,0,0,1-2.5.6,3.5,3.5,0,0,0-1.4.3l-.6.5a1.4,1.4,0,0,0-.2.7,1.2,1.2,0,0,0,.5,1,2.2,2.2,0,0,0,1.3.4,2.9,2.9,0,0,0,1.6-.4,2.4,2.4,0,0,0,1-1,4.5,4.5,0,0,0,.3-1.6Z"/><path class="cls-1" d="M289.4,143.4v-9h1.4v1.4a2.6,2.6,0,0,1,1-1.3,1.7,1.7,0,0,1,1-.3,3.3,3.3,0,0,1,1.6.5l-.6,1.4a2,2,0,0,0-1.1-.3,1.4,1.4,0,0,0-.9.3,1.6,1.6,0,0,0-.6.8,5.5,5.5,0,0,0-.2,1.8v4.7Z"/><path class="cls-1" d="M295.4,143.4v-9h1.4v1.3a3.1,3.1,0,0,1,2.9-1.5l1.5.3a2.3,2.3,0,0,1,1,.7,2.8,2.8,0,0,1,.4,1.2,7.6,7.6,0,0,1,.1,1.5v5.5h-1.5v-5.5a3.6,3.6,0,0,0-.2-1.4,1.1,1.1,0,0,0-.6-.7,2.3,2.3,0,0,0-1.1-.3,2.7,2.7,0,0,0-1.7.6,3,3,0,0,0-.7,2.4v4.9Z"/><path class="cls-1" d="M313.7,143.4v-5.3l-4.8-7.2h2l2.4,3.8a23.9,23.9,0,0,1,1.3,2.1c.4-.6.8-1.4,1.4-2.2l2.4-3.7h1.9l-5,7.2v5.3Z"/><path class="cls-1" d="M319.6,138.9a4.7,4.7,0,0,1,1.4-3.7,4.5,4.5,0,0,1,5.9.2,5.2,5.2,0,0,1,1.2,3.4,6.3,6.3,0,0,1-.6,2.7,3.3,3.3,0,0,1-1.5,1.6,4.3,4.3,0,0,1-2.2.6,4.2,4.2,0,0,1-3.1-1.3A4.8,4.8,0,0,1,319.6,138.9Zm1.6,0a3.5,3.5,0,0,0,.8,2.6,2.4,2.4,0,0,0,3.5.3l.3-.3a4.1,4.1,0,0,0,.7-2.6,3.8,3.8,0,0,0-.7-2.6,2.5,2.5,0,0,0-3.6-.2.2.2,0,0,0-.2.2A3.7,3.7,0,0,0,321.2,138.9Z"/><path class="cls-1" d="M336,143.4v-1.3a3.1,3.1,0,0,1-2.9,1.5,3.2,3.2,0,0,1-1.4-.3,1.8,1.8,0,0,1-1-.7,2.1,2.1,0,0,1-.5-1.2,6.6,6.6,0,0,1-.1-1.4v-5.6h1.5v5a8.6,8.6,0,0,0,.1,1.6,2.1,2.1,0,0,0,.6,1l1.2.3a2.2,2.2,0,0,0,1.3-.4,1.4,1.4,0,0,0,.8-1,4.7,4.7,0,0,0,.3-1.7v-4.8h1.5v9Z"/><path class="cls-1" d="M340,143.4v-9h1.3v1.4a4.5,4.5,0,0,1,1-1.3,1.9,1.9,0,0,1,1-.3,3,3,0,0,1,1.6.5l-.5,1.4a2,2,0,0,0-1.1-.3,1.2,1.2,0,0,0-.9.3,1.6,1.6,0,0,0-.6.8,5.7,5.7,0,0,0-.3,1.8v4.7Z"/><path class="cls-1" d="M350.6,139.4h1.6a2.7,2.7,0,0,0,.5,1.5,2.6,2.6,0,0,0,1.3,1,4.1,4.1,0,0,0,1.9.4l1.7-.3a1.6,1.6,0,0,0,1-.8,1.5,1.5,0,0,0,0-2,2.8,2.8,0,0,0-1.1-.8l-2.2-.6a9.5,9.5,0,0,1-2.4-.7,4.1,4.1,0,0,1-1.4-1.2,2.9,2.9,0,0,1-.4-1.6,3.4,3.4,0,0,1,.5-1.7,4,4,0,0,1,1.6-1.3,5.9,5.9,0,0,1,2.3-.4,7.3,7.3,0,0,1,2.5.4,4,4,0,0,1,1.6,1.3,3.6,3.6,0,0,1,.6,2l-1.6.2a2.3,2.3,0,0,0-.8-1.8,3.1,3.1,0,0,0-2.2-.6,3.3,3.3,0,0,0-2.2.5,1.7,1.7,0,0,0-.7,1.3,1.7,1.7,0,0,0,.5,1.2,6.7,6.7,0,0,0,2.5.8l2.7.8a5.5,5.5,0,0,1,1.7,1.3,3.7,3.7,0,0,1,.5,1.8,3.3,3.3,0,0,1-.6,1.9,4.3,4.3,0,0,1-1.6,1.4,5.1,5.1,0,0,1-2.4.4,5.8,5.8,0,0,1-2.9-.5,4.2,4.2,0,0,1-1.8-1.4A4.8,4.8,0,0,1,350.6,139.4Z"/><path class="cls-1" d="M366.2,142.1l.2,1.3-1.2.2a3.1,3.1,0,0,1-1.3-.3,1.3,1.3,0,0,1-.6-.7,5.5,5.5,0,0,1-.2-1.8v-5.2H362v-1.2h1.1v-2.3l1.5-.9v3.2h1.6v1.2h-1.6v5.3a2.2,2.2,0,0,0,.1.8c.1.2.1.3.3.3h1.2Z"/><path class="cls-1" d="M367.8,143.4v-9h1.4v1.4a3.2,3.2,0,0,1,1-1.3,1.9,1.9,0,0,1,1-.3,3,3,0,0,1,1.6.5l-.5,1.4-1.2-.3-.9.3a2.2,2.2,0,0,0-.5.8,5.7,5.7,0,0,0-.3,1.8v4.7Z"/><path class="cls-1" d="M373.8,146.9l-.2-1.4h1.7l.5-.5a6.1,6.1,0,0,0,.5-1.2v-.3l-3.4-9.1h1.6l1.9,5.2a17.2,17.2,0,0,1,.7,2.1,6.6,6.6,0,0,1,.6-2l2-5.3h1.5l-3.5,9.2-.9,2a2.7,2.7,0,0,1-.9,1.2,2.8,2.8,0,0,1-1.3.3Z"/><path class="cls-1" d="M382.8,146.9V134.4h1.4v1.2a2.7,2.7,0,0,1,1.1-1,2.8,2.8,0,0,1,1.5-.4,3.6,3.6,0,0,1,2,.6,3.1,3.1,0,0,1,1.3,1.7,6.9,6.9,0,0,1,.5,2.4,7,7,0,0,1-.5,2.5,3.8,3.8,0,0,1-3.5,2.3,3.1,3.1,0,0,1-1.3-.3,2.7,2.7,0,0,1-1-.8V147Zm1.4-7.9a3.2,3.2,0,0,0,.7,2.5,2.1,2.1,0,0,0,3.4,0,4.3,4.3,0,0,0,.8-2.7,4.8,4.8,0,0,0-.7-2.6,2.3,2.3,0,0,0-1.7-.8,2.1,2.1,0,0,0-1.8.9,4.3,4.3,0,0,0-.8,2.7Z"/><path class="cls-1" d="M398.8,140.5l1.6.2a4,4,0,0,1-1.4,2.2,4.7,4.7,0,0,1-5.7-.5,4.7,4.7,0,0,1-1.2-3.4,5.2,5.2,0,0,1,1.2-3.6,3.9,3.9,0,0,1,3.1-1.2,3.9,3.9,0,0,1,3,1.2,4.9,4.9,0,0,1,1.1,3.5v.4h-6.7a2.9,2.9,0,0,0,.8,2.3,2.7,2.7,0,0,0,1.9.8,2.4,2.4,0,0,0,1.4-.5A1.9,1.9,0,0,0,398.8,140.5Zm-5-2.5h5.1a2.7,2.7,0,0,0-.6-1.7,2.5,2.5,0,0,0-1.9-.9,2.9,2.9,0,0,0-1.8.7,2.7,2.7,0,0,0-.8,1.9Z"/><path class="cls-1" d="M401.9,140.7l1.5-.2a2.7,2.7,0,0,0,.7,1.4,3.4,3.4,0,0,0,1.7.5,2.6,2.6,0,0,0,1.5-.4,2.7,2.7,0,0,0,.6-1,1.1,1.1,0,0,0-.5-.9l-1.6-.5-2.3-.7a2.2,2.2,0,0,1-1-.9,2.8,2.8,0,0,1-.4-1.2,2,2,0,0,1,.3-1.1,2.4,2.4,0,0,1,.8-.9l1-.4a2.7,2.7,0,0,1,1.3-.2,6.3,6.3,0,0,1,1.9.3,2.8,2.8,0,0,1,1.2.8,5.8,5.8,0,0,1,.5,1.4l-1.5.2a2.4,2.4,0,0,0-.6-1.1,2.2,2.2,0,0,0-1.4-.3,2,2,0,0,0-1.5.3,1,1,0,0,0-.5.8,1.4,1.4,0,0,0,.2.6l.6.4,1.4.4a11.9,11.9,0,0,1,2.3.7,1.9,1.9,0,0,1,1,.8,2.8,2.8,0,0,1,.3,1.3,2.3,2.3,0,0,1-.4,1.4,3.3,3.3,0,0,1-1.3,1.1,6.5,6.5,0,0,1-1.9.4,4.3,4.3,0,0,1-2.7-.8A3,3,0,0,1,401.9,140.7Z"/><path class="cls-1" d="M411.8,143.4v-1.7h1.8v1.7a2.9,2.9,0,0,1-.4,1.6,2.2,2.2,0,0,1-1,.9l-.5-.6a1.6,1.6,0,0,0,.7-.7,2.4,2.4,0,0,0,.3-1.2Z"/><path class="cls-1" d="M421.1,139.4h1.6a2.7,2.7,0,0,0,.5,1.5,2.2,2.2,0,0,0,1.3,1,4.1,4.1,0,0,0,1.9.4,4.5,4.5,0,0,0,1.6-.3,2.2,2.2,0,0,0,1.5-1.8,1.3,1.3,0,0,0-.4-1,2.8,2.8,0,0,0-1.1-.8l-2.2-.6a8.4,8.4,0,0,1-2.4-.7,4.1,4.1,0,0,1-1.4-1.2,2.9,2.9,0,0,1-.4-1.6,3.4,3.4,0,0,1,.5-1.7,4,4,0,0,1,1.6-1.3,5.9,5.9,0,0,1,2.3-.4,6.4,6.4,0,0,1,2.4.4,3.7,3.7,0,0,1,1.7,1.3,3.6,3.6,0,0,1,.6,2l-1.6.2a2.1,2.1,0,0,0-.9-1.8,2.7,2.7,0,0,0-2.1-.6,3.3,3.3,0,0,0-2.2.5,1.5,1.5,0,0,0-.7,1.3,1.7,1.7,0,0,0,.5,1.2,6.7,6.7,0,0,0,2.5.8l2.7.8a4.2,4.2,0,0,1,1.6,1.3,3,3,0,0,1,.6,1.8,3.3,3.3,0,0,1-.6,1.9,4.3,4.3,0,0,1-1.6,1.4,5.3,5.3,0,0,1-2.5.4,5.6,5.6,0,0,1-2.8-.5,4.2,4.2,0,0,1-1.8-1.4A4,4,0,0,1,421.1,139.4Z"/><path class="cls-1" d="M433.3,143.4V130.9h1.5v4.5a3.6,3.6,0,0,1,2.8-1.2,3.3,3.3,0,0,1,1.7.4,2.3,2.3,0,0,1,1.1,1.1,6.4,6.4,0,0,1,.3,2v5.7h-1.5v-5.7a3.4,3.4,0,0,0-.5-1.7,1.7,1.7,0,0,0-1.5-.5,2.4,2.4,0,0,0-1.2.3,2.2,2.2,0,0,0-.9,1,5.1,5.1,0,0,0-.3,1.7v5Z"/><path class="cls-1" d="M449.1,142.3a5.4,5.4,0,0,1-1.6,1l-1.7.3a3,3,0,0,1-2.3-.7,2.4,2.4,0,0,1-.8-1.9,2.6,2.6,0,0,1,1.1-2.1l1.1-.5,1.3-.2,2.8-.5v-.4a1.9,1.9,0,0,0-.5-1.4,3.4,3.4,0,0,0-1.7-.5,2.9,2.9,0,0,0-1.6.4,2.5,2.5,0,0,0-.8,1.4l-1.5-.3a4.1,4.1,0,0,1,.7-1.5,2.6,2.6,0,0,1,1.4-.9,4.4,4.4,0,0,1,2-.3,4.3,4.3,0,0,1,1.9.2l1,.7a2.2,2.2,0,0,1,.5,1.1,6.1,6.1,0,0,1,.1,1.4v2a12.2,12.2,0,0,0,.1,2.7,2.1,2.1,0,0,0,.4,1.1h-1.6A2,2,0,0,1,449.1,142.3Zm-.1-3.4a11.4,11.4,0,0,1-2.5.6,3.5,3.5,0,0,0-1.4.3,1.3,1.3,0,0,0-.8,1.2,1.2,1.2,0,0,0,.5,1,2,2,0,0,0,1.3.4,2.9,2.9,0,0,0,1.6-.4,2.4,2.4,0,0,0,1-1,4.5,4.5,0,0,0,.3-1.6Z"/><path class="cls-1" d="M453.1,146.9V134.4h1.4v1.2a3.5,3.5,0,0,1,1.1-1,2.8,2.8,0,0,1,1.5-.4,3.6,3.6,0,0,1,2,.6,3.9,3.9,0,0,1,1.4,1.7,6.7,6.7,0,0,1,.4,2.4,7,7,0,0,1-.5,2.5,3.7,3.7,0,0,1-3.4,2.3,3.2,3.2,0,0,1-1.4-.3,3.9,3.9,0,0,1-1-.8V147Zm1.4-7.9a3.7,3.7,0,0,0,.7,2.5,2.1,2.1,0,0,0,3.4,0,4.3,4.3,0,0,0,.8-2.7,4.8,4.8,0,0,0-.7-2.6,2.3,2.3,0,0,0-1.7-.8,2.1,2.1,0,0,0-1.8.9,4.2,4.2,0,0,0-.7,2.7Z"/><path class="cls-1" d="M469.2,140.5l1.6.2a4.6,4.6,0,0,1-1.4,2.2,4.8,4.8,0,0,1-5.8-.5,4.7,4.7,0,0,1-1.1-3.4,5.2,5.2,0,0,1,1.1-3.6,3.9,3.9,0,0,1,3.1-1.2,3.9,3.9,0,0,1,3,1.2,5.5,5.5,0,0,1,1.2,3.5v.4h-6.8a3.8,3.8,0,0,0,.8,2.3,2.7,2.7,0,0,0,1.9.8,2.7,2.7,0,0,0,1.5-.5A2.8,2.8,0,0,0,469.2,140.5Zm-5-2.5h5a3.4,3.4,0,0,0-.5-1.7,2.5,2.5,0,0,0-2-.9,2.6,2.6,0,0,0-1.7.7,3.4,3.4,0,0,0-.9,1.9Z"/><path class="cls-1" d="M481.3,143.4v-5.3l-4.8-7.2h2l2.4,3.8a23.9,23.9,0,0,1,1.3,2.1c.4-.6.8-1.4,1.4-2.2l2.4-3.7h1.9l-5,7.2v5.3Z"/><path class="cls-1" d="M487.2,138.9a4.7,4.7,0,0,1,1.4-3.7,4.5,4.5,0,0,1,5.9.2,5.2,5.2,0,0,1,1.2,3.4,6.3,6.3,0,0,1-.6,2.7,3.3,3.3,0,0,1-1.5,1.6,4.3,4.3,0,0,1-2.2.6,4.2,4.2,0,0,1-3.1-1.3A4.8,4.8,0,0,1,487.2,138.9Zm1.6,0a3.5,3.5,0,0,0,.8,2.6,2.4,2.4,0,0,0,3.5.3l.3-.3a4.1,4.1,0,0,0,.7-2.6,3.8,3.8,0,0,0-.7-2.6,2.5,2.5,0,0,0-3.6-.2.2.2,0,0,0-.2.2,3.7,3.7,0,0,0-.8,2.6Z"/><path class="cls-1" d="M503.6,143.4v-1.3a3.1,3.1,0,0,1-2.9,1.5l-1.5-.3a2.3,2.3,0,0,1-1-.7,2.8,2.8,0,0,1-.4-1.2,6.1,6.1,0,0,1-.1-1.4v-5.6h1.5v5a8.6,8.6,0,0,0,.1,1.6,2.1,2.1,0,0,0,.6,1,2.7,2.7,0,0,0,1.2.3,2.2,2.2,0,0,0,1.3-.4,1.4,1.4,0,0,0,.8-1,4.7,4.7,0,0,0,.3-1.7v-4.8H505v9Z"/><path class="cls-1" d="M507.6,143.4v-9h1.3v1.4a4.5,4.5,0,0,1,1-1.3,1.9,1.9,0,0,1,1-.3,3,3,0,0,1,1.6.5l-.5,1.4a2.3,2.3,0,0,0-1.1-.3,1.2,1.2,0,0,0-.9.3,1.6,1.6,0,0,0-.6.8,5.7,5.7,0,0,0-.3,1.8v4.7Z"/><path class="cls-1" d="M518.9,143.4V130.9h8.4v1.5h-6.8v3.9h5.9v1.5h-5.9v5.6Z"/><path class="cls-1" d="M535.4,143.4v-1.3a3.2,3.2,0,0,1-2.9,1.5l-1.5-.3a2.3,2.3,0,0,1-1-.7,4.2,4.2,0,0,1-.6-2.6v-5.6H531v5a4.3,4.3,0,0,0,.1,1.6,1.5,1.5,0,0,0,.6,1,2.2,2.2,0,0,0,2.4-.1,1.8,1.8,0,0,0,.9-1,3.2,3.2,0,0,0,.2-1.7v-4.8h1.6v9Z"/><path class="cls-1" d="M542.7,142.1l.2,1.3-1.1.2a2.8,2.8,0,0,1-1.3-.3,1.6,1.6,0,0,1-.7-.7,11,11,0,0,1-.2-1.8v-5.2h-1.1v-1.2h1.1v-2.3l1.5-.9v3.2h1.6v1.2h-1.6v5.3a2.2,2.2,0,0,0,.1.8c.1.1.2.3.3.3h1.2Z"/><path class="cls-1" d="M550.3,143.4v-1.3a3.1,3.1,0,0,1-2.9,1.5l-1.5-.3a2.3,2.3,0,0,1-1-.7,6.1,6.1,0,0,1-.5-1.2c0-.5-.1-.9-.1-1.4v-5.6h1.6v5a8.6,8.6,0,0,0,.1,1.6,2.1,2.1,0,0,0,.6,1,2.2,2.2,0,0,0,2.4-.1,1.8,1.8,0,0,0,.9-1,4.7,4.7,0,0,0,.3-1.7v-4.8h1.5v9Z"/><path class="cls-1" d="M554.2,143.4v-9h1.4v1.4a3.2,3.2,0,0,1,1-1.3,1.7,1.7,0,0,1,1-.3,3,3,0,0,1,1.6.5l-.5,1.4-1.2-.3-.9.3a1,1,0,0,0-.5.8,5.7,5.7,0,0,0-.3,1.8v4.7Z"/><path class="cls-1" d="M566.4,140.5l1.6.2a4,4,0,0,1-1.4,2.2,3.8,3.8,0,0,1-2.6.7,3.7,3.7,0,0,1-3.1-1.2,4.7,4.7,0,0,1-1.2-3.4,5.2,5.2,0,0,1,1.2-3.6,4.2,4.2,0,0,1,3-1.2,3.9,3.9,0,0,1,3,1.2,4.9,4.9,0,0,1,1.1,3.5v.4h-6.7a4,4,0,0,0,.8,2.3,2.7,2.7,0,0,0,1.9.8,2.7,2.7,0,0,0,1.5-.5A2.3,2.3,0,0,0,566.4,140.5Zm-5-2.5h5.1a2.7,2.7,0,0,0-.6-1.7,2.5,2.5,0,0,0-1.9-.9,2.9,2.9,0,0,0-1.8.7,2.7,2.7,0,0,0-.8,1.9Z"/><line class="cls-2" x1="237.1" y1="116.4" x2="599.1" y2="116.4"/><line class="cls-2" x1="237.3" y1="157.5" x2="599.4" y2="157.5"/></g><g id="Name"><path class="cls-1" d="M274.1,72.1a19.8,19.8,0,0,1-3.2,11.3,21.6,21.6,0,0,1-9.5,7.9,37.5,37.5,0,0,1-14.8,2.8c-6.9,0-12.5-1.3-17-3.9a22.7,22.7,0,0,1-7.7-7.4,16.7,16.7,0,0,1-3-9.1,6.1,6.1,0,0,1,6.1-6.2h.2a5.4,5.4,0,0,1,3.8,1.4,12.9,12.9,0,0,1,2.6,4.2,24.8,24.8,0,0,0,2.9,5.6,11.5,11.5,0,0,0,4.3,3.6,15.5,15.5,0,0,0,7.3,1.5,16.9,16.9,0,0,0,10.2-2.9,9,9,0,0,0,3.9-7.3,7.7,7.7,0,0,0-2.1-5.6,13.5,13.5,0,0,0-5.5-3.3,71.6,71.6,0,0,0-8.9-2.4,67.7,67.7,0,0,1-12.5-4.1,20,20,0,0,1-8-6.4,16.7,16.7,0,0,1-3-10.1,17.3,17.3,0,0,1,3.2-10.1,20.7,20.7,0,0,1,9.1-6.9,38.3,38.3,0,0,1,13.9-2.3,35,35,0,0,1,11.1,1.5,23.4,23.4,0,0,1,7.7,4.3,16,16,0,0,1,4.5,5.5,11.9,11.9,0,0,1,1.4,5.6,6.3,6.3,0,0,1-1.8,4.5,5.4,5.4,0,0,1-4.4,2,5,5,0,0,1-3.7-1.2,17,17,0,0,1-2.7-3.9,17.4,17.4,0,0,0-4.5-6.2c-1.8-1.4-4.6-2.2-8.6-2.2a14.9,14.9,0,0,0-8.7,2.4c-2.3,1.6-3.4,3.5-3.4,5.8a6,6,0,0,0,1.2,3.6,9.8,9.8,0,0,0,3.1,2.6,20,20,0,0,0,4,1.7l6.7,1.8a98.2,98.2,0,0,1,10.6,3,30.6,30.6,0,0,1,8.1,4,15.9,15.9,0,0,1,5.2,6A18.3,18.3,0,0,1,274.1,72.1Z"/><path class="cls-1" d="M331.2,35.1H315.8V85.5c0,2.9-.7,5.1-2,6.5a6.2,6.2,0,0,1-5,2.1,6.6,6.6,0,0,1-5.1-2.1,9.5,9.5,0,0,1-2-6.5V35.1H286.5c-2.4,0-4.2-.5-5.4-1.6a5.2,5.2,0,0,1-1.7-4.2,4.9,4.9,0,0,1,1.8-4.2,7.8,7.8,0,0,1,5.3-1.6h44.7c2.4,0,4.2.5,5.4,1.6a5.6,5.6,0,0,1,1.8,4.2,6,6,0,0,1-1.8,4.2A8.2,8.2,0,0,1,331.2,35.1Z"/><path class="cls-1" d="M365.6,63.2h-4.9V85.5c0,3-.7,5.1-2,6.5a6.4,6.4,0,0,1-5,2.1,6.7,6.7,0,0,1-5.3-2.2c-1.2-1.4-1.8-3.6-1.8-6.4V32.1c0-3,.7-5.2,2-6.6s3.5-2,6.6-2H378a72,72,0,0,1,8.1.4,21.3,21.3,0,0,1,6.1,1.7,17.4,17.4,0,0,1,5.8,3.9,19.3,19.3,0,0,1,3.8,5.9,19.9,19.9,0,0,1,1.3,7.2c0,5.2-1.5,9.3-4.4,12.4s-7.3,5.3-13.2,6.6a25.1,25.1,0,0,1,7.1,5.9,54.5,54.5,0,0,1,6.1,8.2,59.8,59.8,0,0,1,4.2,7.9,21.3,21.3,0,0,1,1.5,4.9,5.1,5.1,0,0,1-.9,2.7,6.1,6.1,0,0,1-2.4,2.1,7.2,7.2,0,0,1-3.5.8,6.4,6.4,0,0,1-4-1.1,12.4,12.4,0,0,1-2.8-2.8c-.7-1.2-1.8-2.8-3.1-5L382,75.8a46,46,0,0,0-5.4-7.9,13.2,13.2,0,0,0-4.8-3.6A16.6,16.6,0,0,0,365.6,63.2Zm8-29.2h-13V53.1h12.6a35.3,35.3,0,0,0,8.6-.8,10.5,10.5,0,0,0,5.2-3,9.6,9.6,0,0,0,.4-10.9,8.3,8.3,0,0,0-4.1-3.3C381.7,34.4,378.5,34,373.6,34Z"/><path class="cls-1" d="M428.2,85.5v-22l-17-26.3a48.8,48.8,0,0,1-3.1-5.5,7.3,7.3,0,0,1-.9-3.5,5.2,5.2,0,0,1,1.8-4.1,6.7,6.7,0,0,1,4.7-1.8A5.4,5.4,0,0,1,418,24a41.8,41.8,0,0,1,4.5,6.5l13,21,13.1-21,2-3.3,1.8-2.5a7.9,7.9,0,0,1,2.2-1.8,6.8,6.8,0,0,1,7.3,1.2,5.4,5.4,0,0,1,1.8,4,11.2,11.2,0,0,1-.9,3.6c-1,1.8-2,3.5-3.1,5.2L442.3,63.5v22a9.5,9.5,0,0,1-2,6.5,6.6,6.6,0,0,1-5.1,2.1,6.4,6.4,0,0,1-5-2.1C428.9,90.6,428.2,88.4,428.2,85.5Z"/><path class="cls-1" d="M500.3,65.9H487.4V85.5c0,2.8-.6,5-2,6.4a7,7,0,0,1-9.9.2l-.2-.2c-1.3-1.4-1.9-3.5-1.9-6.3V32.1q0-4.7,2.1-6.6c1.4-1.3,3.7-2,6.8-2h18a46.7,46.7,0,0,1,12.3,1.2,18.5,18.5,0,0,1,7.3,3.9,19.1,19.1,0,0,1,4.8,6.8,24.7,24.7,0,0,1,1.6,9c0,7-2.2,12.4-6.6,16S508.9,65.9,500.3,65.9ZM496.9,34h-9.5V55.3h9.5a33.1,33.1,0,0,0,8.3-1,10.5,10.5,0,0,0,5.1-3.4,11,11,0,0,0,1.8-6.3,10.6,10.6,0,0,0-2.7-7.4C507.3,35.1,503.2,34,496.9,34Z"/><path class="cls-1" d="M583.8,34.3H552.1V51.4h29.2a7.5,7.5,0,0,1,4.8,1.4,5.1,5.1,0,0,1,1.6,3.8,5.1,5.1,0,0,1-1.6,3.9,6.9,6.9,0,0,1-4.8,1.5H552.1V81.7h32.8a7,7,0,0,1,5,1.6,5.5,5.5,0,0,1,1.7,4.1,5.4,5.4,0,0,1-1.7,4,7.4,7.4,0,0,1-5,1.5H546.7c-3.1,0-5.3-.7-6.6-2s-2-3.5-2-6.6V32.1a10.8,10.8,0,0,1,.9-5,5.5,5.5,0,0,1,2.8-2.8,13.3,13.3,0,0,1,4.9-.9h37.1a7.6,7.6,0,0,1,5,1.5,4.9,4.9,0,0,1,1.6,3.9,5,5,0,0,1-1.6,4A7.1,7.1,0,0,1,583.8,34.3Z"/><path class="cls-3" d="M610.4,94.1a7.4,7.4,0,0,1-5-1.9,6.7,6.7,0,0,1-2.2-5.3,7,7,0,0,1,2-5,6.7,6.7,0,0,1,5-2.1,6.9,6.9,0,0,1,5.1,2.1,7.2,7.2,0,0,1,0,10.2A7,7,0,0,1,610.4,94.1Z"/></g><g id="Zebra-2"><g id="Stripes"><path class="cls-1" d="M161.2,84.8c20.1,134.7-47.6,56.4-70.8,106.7L89.5,168c5.6-32.3,92.9,18.3,57.9-95.8,12-4.8,17.9-12.4,20.1-21.9L184.2,68C180,75.7,173.5,82,161.2,84.8Z"/><path class="cls-1" d="M142,66c10.3-4,15.9-11.8,17.6-22.5L141,31.4c-1.8,9.7-3.6,20.4-13.1,20.9,29.7,105.7-35.1,77.6-39.4,93.2v16.6C112.2,115.3,157.8,185.7,142,66Z"/><path class="cls-1" d="M121.1,49.5l-13.5-5.2C119,76.8,121,100.4,114,115.5c-1.5,2.2-4.1,1.3-4.2-1.9,6.6-21.3,1.2-46.9-7.4-71L95.1,42c16.4,51.7,13.9,77.8-8.6,89.2l.8,11.9C112.9,120.9,136.1,140.9,121.1,49.5Z"/><path class="cls-1" d="M3.2,138.9c-1.6,13.5,1.7,16,10.8,14.6,4.3,4,9,4.9,14.9,1,7.9-.4,11.8-2.9,12.4-11.4.7-2.8,2.7-3.5,5.5-2.9.1-5.5,5.2-10.3,2.9-2.9-.5,4.2,4.7,3.2,7.8-.1,7.1-11.7-24.6-9.8-16.8-.3-7.8,6.7-13.4-11-3.5-16,15.3,2.9,30.8,2.9,40.2.9,2.3,4.5.8,7.6-4.1,8.6-2.3-5.3-12.1-7.2-12.9-.6-.3,3.5-.5,8.1,1,7.8,6.7-5.7,17.8-2,24-4.4-1.1-1.6-1-2.9,0-4.1,14.5-8.2,22.8-30.7,8-61.9l.2,13.4c12.7,26-3,40.8-5.1,44.2-1,1.5-2.9.6-1.8-1.1,7.1-8.8,9-13.3,6.7-28.6.1,1.1-.5,2.1-1.5,2.1H85a1.5,1.5,0,0,1-1.4-1.7V87.1c-3.8-1.2-6-1.7-7.3-3.4.7-12.2-9.1-10.6-7.5-29.5-6.2,6.1-4.4,18.1-11.6,25a26,26,0,0,1,10.7,1.5c-2.5-3.5-3.1-10.1-1.4-16.9,20.7,38.7-15,26.1-24.9,35.3l.7-2.3c.1-.9-.3-1.4-1.6-1.1l-18.2,17c-1.3,1-2.6,0-1.5-1.6,15.5-24.4,24.1-8.3,31.4-45.4.2-1.3-.3-2-1-1.8l-1.1.6c2.7-3,1.1-10.3,5.2-13.2.9,1.8-1.8,8.2-.1,9.5,3-4.1,6-6.9,8.8-7.7a6.8,6.8,0,0,0,.2-6.9c-1.7-1.3-2.6-2.9-1.3-4.2s2.4-1,1.4-3.1C59,36.8,57.6,26.1,58,11.6c0-.4.7-1.2,1.7.1,10.5,12,12.7,23.1,11.7,35.5-.2,1.2,2.7,1.7,3.8.8l2.2-2.4q1.8,1.8.9,5.7c-11.3,3.9-9,9-.9,18.8a3.3,3.3,0,0,1,1.8,3.2c-7,2.5-1.4,5.3,4.4,6.1V69.3c-6.7-7.3-4.5-8.1,0-4V42H77.4C80,29.5,71.1,10.3,57.7.3a2.1,2.1,0,0,0-2.5.2c-3,20.5.3,37,6.1,40.5.6.6-.5,2-1.4.8-6.3-7.5-8.7-19.9-6.3-37.1L11.1,2.8C6.8,2.5,6.8,4.9,8.8,5.6l39.6,8.5c-2.8,11.9-2.2,29.7-1,48.5C44,73.8,27.9,75.7,26.2,92.6c-2.8,3-5.1,6-5.1,8.9C7.7,119.4-6.6,133,3.2,138.9Zm77.7-36.2c-6.8,17.8-19,14.5-43.6,14.5a50.6,50.6,0,0,1,9.2-4.1c20.4,2.1,28.9-2.1,32.7-20.2,12.5,10,8.5,20.2,7.3,24.7-2.4-2,.4-9.1-3.1-17.4-.4-2.8-2.2,1.7-2.5,2.5ZM32.4,116.2c-3.2,2.6-6.1-.7-4.1-3.3,28.6-21.8,15.7-.5,42-19.1-.5,20.9-21.8,6.5-37.9,22.4ZM19.8,108c-1,1-1.5-1-1.5-1s16-20.1,30.4-41.5c.6-.6,1.4.1,1.1.6-9.1,19.7-19.1,25.1-30,41.9Zm-6.5,24.5c-1.1.3-1.6,0-1.8-.8,5.3-2.6,7.1-.3,7.2,4.4,0,1-1.3,1.2-1.6,0,.2-3.7-1-4.9-3.8-3.6Z"/><path class="cls-1" d="M59.6,60.4c-5.1,8.7-7.9,12.8-7.1,15.7a11.3,11.3,0,0,0,2.6,0c5.3-.1,6.6-6.3,5.9-15.7C60.8,59.2,60.4,59.1,59.6,60.4Z"/><path class="cls-1" d="M48.5,126.4a24.9,24.9,0,0,0-13.7,6.1c-1.4-1.3-1.9-3.1,0-6.2,4.1-4.2,9.1-4,14.4-1.8C50.3,125.2,49.4,126.3,48.5,126.4Z"/><path id="left_ear" data-name="left ear" class="cls-1" d="M45.9,34.6c-.2,1.6-3.1.5-3.2-.2,2.5-13.1-5.4-9.4-4.1-16.7-.6-1.8-1.5-1.4-2,.4-1.9,7.3,3.2,19.7,7.6,18.2,1.1,2.5.1,3.2-1.7,3.1C34.4,34.2,30,22.4,33,11.9c.4-.5.7-.3,1.9,0,6,2.2,9.4,3.7,11.7,7Z"/></g><g id="Tassel"><circle class="cls-3" cx="88.7" cy="17.2" r="4.1"/><rect class="cls-3" x="86.7" y="19.7" width="3.6" height="10.59"/><circle class="cls-3" cx="88.7" cy="13" r="1.1"/><rect class="cls-3" x="85.5" y="29.5" width="6.1" height="66.26" rx="1.7"/><polygon class="cls-3" points="88.1 5.8 89.4 6 89.3 12.3 88.1 12.3 88.1 5.8"/></g><g id="Mortarboard"><path class="cls-1" d="M90.7,11.1a6.6,6.6,0,0,1,3.6,3,6.4,6.4,0,0,1-2.5,8.8v6.6c2.5.4,1.3,2.2,1.6,13.6,14.4-.1,25.9,6.5,37.2,13.6a79.6,79.6,0,0,0,5-31.7l26.5-3.6c.7-.2.8-1.6,0-1.8L90.6,6.2C90.6,9.3,90.6,6.7,90.7,11.1Z"/><path class="cls-1" d="M86.9,5.7V11c-4.2,1.2-7.1,7.8-1.6,11.7v6.8c-2.6.4-1.4,1.5-1.7,12.5H78.4c2.1-14.5-3.6-24.8-14-37.1Z"/></g></g></g></g></svg>