<svg id="Layer_12" data-name="Layer 12" xmlns="http://www.w3.org/2000/svg" viewBox="0 0 376.8 391.9"><defs><style>.cls-1{fill:#576087;}</style></defs><g id="Zebra"><g id="Stripes"><path class="cls-1" d="M329.7,173.5C370.8,449,232.3,288.9,184.9,391.9l-1.8-48.2c11.5-66.2,190,37.4,118.5-196,24.5-9.8,36.6-25.5,41.1-44.8L376.8,139C368.2,154.7,354.9,167.6,329.7,173.5Z"/><path class="cls-1" d="M290.4,134.9c21.2-8.2,32.6-24,36.1-45.9L288.4,64.3C284.7,84,281,105.9,261.7,107c60.6,216.3-71.8,158.8-80.7,190.6v33.9C229.6,235.9,322.7,379.9,290.4,134.9Z"/><path class="cls-1" d="M247.7,101.3,220,90.5c23.4,66.5,27.4,114.8,13.1,145.8-3,4.5-8.3,2.7-8.5-4,13.4-43.6,2.4-96-15.3-145.3l-14.7-1.1C228,191.5,223,245,177,268.4l1.5,24.3C231,247.4,278.5,288.2,247.7,101.3Z"/><path class="cls-1" d="M6.6,284c-3.3,27.7,3.4,32.8,22.1,29.9,8.7,8.3,18.3,10,30.3,2,16.3-.6,24.3-5.8,25.5-23.2,1.4-5.7,5.5-7.1,11.4-6,.2-11.1,10.4-20.9,5.7-5.8-.8,8.5,9.7,6.4,16.1-.2,14.5-24.1-50.4-20-34.4-.7-15.9,13.8-27.4-22.4-7.1-32.6,31.1,5.9,62.9,5.9,82,1.6,4.9,9.4,1.8,15.6-8.2,17.6-4.7-10.7-24.8-14.5-26.3-1.1-.8,7.2-1.1,16.6,2,15.9,13.7-11.6,36.3-4,49.1-9-2.2-3.2-2.1-5.9,0-8.2,29.5-16.8,46.7-62.9,16.2-126.7l.5,27.4c26.1,53.3-6.1,83.5-10.5,90.5-2.1,2.9-5.8,1.1-3.6-2.3,14.6-18,18.5-27.3,13.8-58.5,0,2.2-1.1,4.3-3.2,4.3-4.6,0-8.7.2-13.9,0h-.2a3.1,3.1,0,0,1-2.8-3.4V178.1c-7.8-2.5-12.4-3.5-15-7,1.3-24.9-18.5-21.6-15.4-60.2-12.7,12.5-9,36.9-23.7,51.2a50.5,50.5,0,0,1,22.1,3c-5.2-7.4-6.5-20.8-3-34.7,42.4,79.3-30.7,53.5-50.9,72.1l1.4-4.6c.1-1.8-.6-2.8-3.4-2.2L46.1,230.6c-2.7,1.9-5.3-.1-3.2-3.3,31.7-49.9,49.4-17.1,64.4-93,.3-2.7-.8-4.1-2.1-3.7L103,132c5.5-6.3,2.2-21.2,10.7-27.1,1.6,3.7-3.8,16.8-.4,19.4,6.2-8.5,12.2-14,18-15.8,2.7-4.9,3-10,.4-14s-5.3-5.9-2.7-8.7c3.5-.2,4.9-2,3-6.3-11.3-4.3-14.2-26.2-13.4-55.9,0-.6,1.5-2.3,3.5.4,21.6,24.5,26,47.2,24,72.5-.5,2.5,5.4,3.6,7.7,1.7l4.5-5c2.5,2.5,3.2,6.3,1.8,11.7-23.1,7.9-18.4,18.4-1.8,38.5,2.4,1.2,3.6,3.5,3.7,6.7-14.4,5-2.9,10.8,9.1,12.3V141.8c-13.8-14.9-9.3-16.5,0-8.1V85.8H158.3C163.8,60.4,145.5,21.1,118,.6a4.4,4.4,0,0,0-5,.4c-6.2,41.9.5,75.6,12.3,82.8,1.3,1.2-1,4-2.9,1.6C109.6,70,104.6,44.7,109.6,9.5L22.7,5.6c-8.9-.7-8.8,4.3-4.7,5.7L98.9,28.7c-5.6,24.5-4.4,60.7-2,99.3C90,151,57,154.7,53.7,189.3c-5.8,6.2-10.5,12.4-10.5,18.3C15.8,244.1-13.4,272,6.6,284Zm158.9-74c-14,36.5-38.8,29.8-89.3,29.8a110.9,110.9,0,0,1,19-8.4c41.7,4.3,59.1-4.5,66.8-41.5,25.7,20.6,17.3,41.5,15,50.7-5-4.1.8-18.7-6.5-35.7-.7-5.7-4.3,3.4-5,5.1ZM58,231c58.5-44.7,31.9-1,85.8-39.1-1,42.8-44.5,13.3-77.5,45.8C59.8,243,53.8,236.2,58,231ZM40.4,220.9c-1.9,2.2-3-2.1-3-2.1S70.1,177.7,99.6,134c1.3-1.2,3,.2,2.4,1.2-18.8,40.4-39.2,51.3-61.6,85.7ZM27.2,271.1c-2.2.6-3.3-.2-3.6-1.8,10.7-5.3,14.4-.5,14.7,9.2,0,1.9-2.8,2.4-3.3,0,.5-7.7-2.1-10.2-7.8-7.4Z"/><path class="cls-1" d="M122,123.6c-10.4,17.7-16.2,26.1-14.7,32.1a48.6,48.6,0,0,0,5.4,0c10.8-.2,13.5-12.9,12-32.1C124.3,121,123.7,120.8,122,123.6Z"/><path class="cls-1" d="M99.1,258.5c-10,.9-20.3,5.8-27.9,12.4-2.9-2.6-4-6.1,0-12.6,8.5-8.7,18.6-8.1,29.5-3.7C102.9,256.1,101.1,258.3,99.1,258.5Z"/><path id="left_ear" data-name="left ear" class="cls-1" d="M93.8,70.8c-.4,3.3-6.2.9-6.4-.5,5.1-26.8-11.2-19.1-8.5-34.1-1.2-3.8-3-3-4,.8C71,51.9,81.4,77.4,90.4,74.2c2.2,5.2.2,6.5-3.5,6.3C70.3,70,61.3,45.7,67.5,24.2c.7-1,1.5-.5,3.8.2,12.4,4.5,19.3,7.4,24,14.2Z"/></g><g id="Tassel"><circle class="cls-1" cx="181.4" cy="35.2" r="8.5"/><rect class="cls-1" x="177.4" y="40.4" width="7.3" height="21.65"/><circle class="cls-1" cx="181.4" cy="26.5" r="2.2"/><rect class="cls-1" x="174.8" y="60.2" width="12.5" height="135.54" rx="2.1"/><polygon class="cls-1" points="180.2 11.9 182.8 12.2 182.7 25.2 180.2 25.2 180.2 11.9"/></g><g id="Mortarboard"><path class="cls-1" d="M185.4,22.7c12.2,4.6,11.4,18.9,2.4,24.1V60.2c5.2,1,2.7,4.6,3.2,28,29.4-.2,53,13.2,76.1,27.8a163,163,0,0,0,10.3-64.8l54.2-7.5c1.3-.2,1.6-3.1,0-3.6L185.4,12.7C185.4,19,185.3,13.6,185.4,22.7Z"/><path class="cls-1" d="M177.7,11.6s-.1-.6,0,11c-8.6,2.2-14.6,15.9-3.2,23.8V60.2c-5.3.9-2.9,3.1-3.4,25.7H160.5c4.3-29.7-7.4-50.7-28.7-76Z"/></g></g></svg>