<svg id="Layer_1" data-name="Layer 1" xmlns="http://www.w3.org/2000/svg" viewBox="0 0 512.4 92.2"><defs><style>.cls-1{fill:#576087;}.cls-2{fill:#f6b595;}</style></defs><g id="Layer_11" data-name="Layer 11"><g id="Zebra"><g id="Name"><path class="cls-1" d="M169.1,59.4a19.8,19.8,0,0,1-3.2,11.3,20.7,20.7,0,0,1-9.5,7.8,35.9,35.9,0,0,1-14.8,2.9c-6.9,0-12.5-1.3-17-3.9a22.1,22.1,0,0,1-7.7-7.5,16.2,16.2,0,0,1-3-9,6.1,6.1,0,0,1,6.1-6.2h.2a5.4,5.4,0,0,1,3.8,1.4,12.9,12.9,0,0,1,2.6,4.2,22.2,22.2,0,0,0,2.9,5.5,10.9,10.9,0,0,0,4.3,3.7,15.5,15.5,0,0,0,7.3,1.5,16.9,16.9,0,0,0,10.2-2.9,9,9,0,0,0,3.9-7.3,7.7,7.7,0,0,0-2.1-5.6,12.9,12.9,0,0,0-5.5-3.3,71.6,71.6,0,0,0-8.9-2.4,67.7,67.7,0,0,1-12.5-4.1,20,20,0,0,1-8-6.4,16.7,16.7,0,0,1-3-10.1,17.3,17.3,0,0,1,3.2-10.1,20.7,20.7,0,0,1,9.1-6.9,40.5,40.5,0,0,1,25-.8,25.1,25.1,0,0,1,7.7,4.2,17.4,17.4,0,0,1,4.5,5.6,11.9,11.9,0,0,1,1.4,5.6,6.3,6.3,0,0,1-1.8,4.5,5.4,5.4,0,0,1-4.4,2,5.2,5.2,0,0,1-3.7-1.2,17,17,0,0,1-2.7-3.9,17.4,17.4,0,0,0-4.5-6.2c-1.8-1.4-4.6-2.2-8.6-2.2a14.9,14.9,0,0,0-8.7,2.4c-2.3,1.6-3.4,3.5-3.4,5.8a6,6,0,0,0,1.2,3.6,9.8,9.8,0,0,0,3.1,2.6,20,20,0,0,0,4,1.7l6.7,1.8a98.2,98.2,0,0,1,10.6,3,30.6,30.6,0,0,1,8.1,4,15.9,15.9,0,0,1,5.2,6A18.1,18.1,0,0,1,169.1,59.4Z"/><path class="cls-1" d="M226.2,22.4H210.8V72.8c0,2.9-.7,5.1-2,6.5a6.6,6.6,0,0,1-5,2.1,6.7,6.7,0,0,1-5.1-2.1,9.5,9.5,0,0,1-2-6.5V22.4H181.5c-2.4,0-4.2-.5-5.4-1.6a5.2,5.2,0,0,1-1.7-4.2,5.5,5.5,0,0,1,1.8-4.3,7.7,7.7,0,0,1,5.3-1.5h44.7c2.4,0,4.2.5,5.4,1.6a5.6,5.6,0,0,1,1.8,4.2,5.6,5.6,0,0,1-1.8,4.2A8.2,8.2,0,0,1,226.2,22.4Z"/><path class="cls-1" d="M260.6,50.5h-4.9V72.8c0,3-.7,5.1-2,6.5a6.4,6.4,0,0,1-5,2.1,6.7,6.7,0,0,1-5.3-2.2c-1.2-1.4-1.8-3.6-1.8-6.4V19.4c0-3,.7-5.2,2-6.6s3.5-2,6.6-2H273a70.9,70.9,0,0,1,8.1.4,21.3,21.3,0,0,1,6.1,1.7,17.4,17.4,0,0,1,5.8,3.9,16.2,16.2,0,0,1,3.8,5.9,19.9,19.9,0,0,1,1.3,7.2c0,5.2-1.5,9.3-4.4,12.4s-7.3,5.3-13.2,6.6a26.6,26.6,0,0,1,7.1,5.8,61,61,0,0,1,6.1,8.3,59.8,59.8,0,0,1,4.2,7.9,19.9,19.9,0,0,1,1.5,4.9,4.4,4.4,0,0,1-.9,2.7,6.1,6.1,0,0,1-2.4,2.1,7.2,7.2,0,0,1-3.5.8,6.4,6.4,0,0,1-4-1.1,12.4,12.4,0,0,1-2.8-2.8c-.7-1.2-1.8-2.8-3.1-5L277,63.1a46,46,0,0,0-5.4-7.9,13.5,13.5,0,0,0-4.8-3.7A18.7,18.7,0,0,0,260.6,50.5Zm8-29.2h-13V40.4h12.6a31.1,31.1,0,0,0,8.6-.9,9.2,9.2,0,0,0,5.2-3,8.6,8.6,0,0,0,1.9-5.8,8.9,8.9,0,0,0-1.5-5,8.3,8.3,0,0,0-4.1-3.3C276.7,21.7,273.5,21.3,268.6,21.3Z"/><path class="cls-1" d="M323.2,72.8v-22l-17-26.3a59.5,59.5,0,0,1-3.1-5.5,7.3,7.3,0,0,1-.9-3.5,5.2,5.2,0,0,1,1.8-4.1,6.9,6.9,0,0,1,4.7-1.8,5.6,5.6,0,0,1,4.3,1.6,48.1,48.1,0,0,1,4.5,6.6l13,21,13.1-21,2-3.3,1.8-2.5a7.9,7.9,0,0,1,2.2-1.8,7,7,0,0,1,7.3,1.1,5.7,5.7,0,0,1,1.8,4,9.2,9.2,0,0,1-.9,3.7c-1,1.8-2,3.5-3.1,5.2L337.3,50.8v22a9.5,9.5,0,0,1-2,6.5,6.8,6.8,0,0,1-5.1,2.1,6.4,6.4,0,0,1-5-2.1C323.9,77.9,323.2,75.7,323.2,72.8Z"/><path class="cls-1" d="M395.3,53.2H382.4V72.8c0,2.8-.6,5-2,6.4a7,7,0,0,1-9.9.2l-.2-.2c-1.3-1.4-1.9-3.5-1.9-6.3V19.4q0-4.6,2.1-6.6c1.4-1.4,3.7-2,6.8-2h18A42.8,42.8,0,0,1,407.6,12a18.5,18.5,0,0,1,7.3,3.9,19.1,19.1,0,0,1,4.8,6.8,24.7,24.7,0,0,1,1.6,9c0,7-2.2,12.4-6.6,16S403.9,53.2,395.3,53.2Zm-3.4-31.9h-9.5V42.6h9.5a33.1,33.1,0,0,0,8.3-1,10,10,0,0,0,5.1-3.5,9.8,9.8,0,0,0,1.8-6.2,10.6,10.6,0,0,0-2.7-7.4C402.3,22.4,398.2,21.3,391.9,21.3Z"/><path class="cls-1" d="M478.8,21.6H447.1V38.7h29.2a7,7,0,0,1,4.8,1.4,5.1,5.1,0,0,1,1.6,3.8,5.1,5.1,0,0,1-1.6,3.9,6.9,6.9,0,0,1-4.8,1.5H447.1V69h32.8a7,7,0,0,1,5,1.6,5.5,5.5,0,0,1,1.7,4.1,5.6,5.6,0,0,1-1.7,4,7.4,7.4,0,0,1-5,1.5H441.7c-3.1,0-5.3-.7-6.6-2s-2-3.5-2-6.6V19.4a10.8,10.8,0,0,1,.9-5,5.5,5.5,0,0,1,2.8-2.8,13.3,13.3,0,0,1,4.9-.9h37.1a7.4,7.4,0,0,1,5,1.5,4.8,4.8,0,0,1,1.6,3.9,5,5,0,0,1-1.6,4A6.9,6.9,0,0,1,478.8,21.6Z"/><path class="cls-2" d="M505.4,81.4a7.6,7.6,0,0,1-5-1.9,6.7,6.7,0,0,1-2.2-5.3,7,7,0,0,1,2-5,6.7,6.7,0,0,1,5-2.1,6.9,6.9,0,0,1,5.1,2.1,7.2,7.2,0,0,1,0,10.2A7,7,0,0,1,505.4,81.4Z"/></g><g id="Zebra-2"><g id="Stripes"><path class="cls-1" d="M77.6,40.8C87.3,105.7,54.7,68,43.5,92.2l-.4-11.3C45.8,65.3,87.8,89.7,71,34.8c5.8-2.3,8.6-6,9.7-10.6l8,8.5C86.7,36.4,83.5,39.5,77.6,40.8Z"/><path class="cls-1" d="M68.4,31.8c4.9-2,7.6-5.7,8.5-10.8l-9-5.9c-.9,4.7-1.8,9.8-6.3,10.1,14.3,50.9-16.9,37.3-19,44.9V78C54,55.5,76,89.4,68.4,31.8Z"/><path class="cls-1" d="M58.3,23.8l-6.5-2.5c5.5,15.7,6.5,27,3.1,34.3-.7,1.1-2,.6-2-.9,3.1-10.3.5-22.6-3.6-34.2l-3.5-.3c7.9,24.9,6.7,37.5-4.1,43l.3,5.7C54.4,58.2,65.6,67.8,58.3,23.8Z"/><path class="cls-1" d="M1.6,66.9c-.8,6.5.8,7.7,5.2,7,2,1.9,4.3,2.4,7.1.5,3.8-.2,5.7-1.4,6-5.5.3-1.3,1.3-1.7,2.7-1.4,0-2.6,2.4-4.9,1.3-1.4s2.3,1.5,3.8,0c3.4-5.7-11.9-4.7-8.1-.2-3.8,3.3-6.4-5.3-1.7-7.7,7.4,1.4,14.8,1.4,19.3.4,1.2,2.2.5,3.7-1.9,4.2-1.1-2.6-5.8-3.5-6.2-.3s-.3,3.9.5,3.7c3.2-2.7,8.5-.9,11.5-2.1a1.4,1.4,0,0,1,0-1.9c7-4,11-14.8,3.8-29.8l.2,6.4c6.1,12.5-1.5,19.7-2.5,21.3s-1.4.3-.9-.5c3.5-4.3,4.4-6.5,3.3-13.8a.9.9,0,0,1-.8,1c-1,0-2,.1-3.2,0h-.1a.6.6,0,0,1-.6-.8V41.9c-1.9-.6-2.9-.8-3.6-1.6.4-5.9-4.3-5.1-3.6-14.2-3,3-2.1,8.7-5.6,12.1a11.3,11.3,0,0,1,5.2.7c-1.2-1.8-1.5-4.9-.7-8.2,10,18.7-7.2,12.6-12,17l.4-1.1c0-.4-.2-.7-.8-.5l-8.8,8.2c-.6.4-1.2-.1-.7-.8,7.5-11.7,11.6-4,15.1-21.9.1-.6-.1-.9-.4-.8l-.6.3c1.3-1.5.5-5,2.5-6.4.4.9-.9,4,0,4.6a9.2,9.2,0,0,1,4.2-3.7,3.3,3.3,0,0,0,.1-3.3c-.8-.7-1.2-1.4-.6-2.1s1.1-.5.7-1.5c-2.7-1-3.4-6.2-3.2-13.1,0-.2.4-.6.8.1,5.1,5.7,6.1,11.1,5.7,17-.1.6,1.3.9,1.8.4l1.1-1.2a3.1,3.1,0,0,1,.4,2.8c-5.5,1.9-4.3,4.3-.4,9.1a1.6,1.6,0,0,1,.8,1.5c-3.4,1.2-.7,2.6,2.2,2.9V33.4c-3.3-3.5-2.2-3.9,0-1.9V20.2h-3C38.5,14.2,34.2,5,27.8.1a1.3,1.3,0,0,0-1.2.1c-1.4,9.9.1,17.8,2.9,19.5.3.3-.2,1-.7.4-3-3.6-4.2-9.6-3-17.8L5.3,1.3c-2-.1-2,1-1.1,1.4L23.3,6.8c-1.3,5.7-1.1,14.3-.5,23.3-1.6,5.4-9.4,6.3-10.2,14.5-1.3,1.4-2.4,2.9-2.4,4.3C3.7,57.5-3.2,64,1.6,66.9ZM39,49.4c-3.3,8.6-9.2,7-21,7a24.4,24.4,0,0,1,4.4-1.9c9.8,1,13.9-1.1,15.7-9.8,6.1,4.8,4.1,9.8,3.6,11.9-1.2-.9.1-4.4-1.6-8.4-.1-1.3-1,.8-1.1,1.2ZM15.6,55.9c-1.5,1.3-2.9-.3-2-1.5,13.8-10.5,7.6-.3,20.2-9.2-.2,10-10.4,3.1-18.2,10.7ZM9.5,52c-.4.5-.7-.5-.7-.5s7.7-9.7,14.6-19.9c.3-.3.7,0,.6.2C19.6,41.3,14.8,43.9,9.5,52ZM6.4,63.8c-.5.2-.8,0-.8-.4,2.5-1.3,3.3-.1,3.4,2.1,0,.5-.6.6-.8,0s-.5-2.3-1.8-1.7Z"/><path class="cls-1" d="M28.7,29.1c-2.4,4.2-3.8,6.1-3.4,7.6h1.2c2.6-.1,3.2-3.1,2.8-7.6C29.3,28.5,29.1,28.4,28.7,29.1Z"/><path class="cls-1" d="M23.3,60.8a12.2,12.2,0,0,0-6.5,3c-.7-.6-1-1.5,0-3s4.3-1.9,6.9-.9C24.2,60.3,23.8,60.8,23.3,60.8Z"/><path id="left_ear" data-name="left ear" class="cls-1" d="M22.1,16.7c-.1.7-1.5.2-1.5-.1,1.2-6.4-2.7-4.6-2-8.1-.3-.9-.7-.7-1,.2-.9,3.5,1.6,9.5,3.7,8.8.5,1.2,0,1.5-.8,1.5-3.9-2.5-6.1-8.2-4.6-13.3.2-.2.3-.1.9,0,2.9,1.1,4.5,1.8,5.6,3.4Z"/></g><g id="Tassel"><circle class="cls-1" cx="42.7" cy="8.3" r="2"/><rect class="cls-1" x="41.8" y="9.5" width="1.7" height="5.1"/><circle class="cls-1" cx="42.7" cy="6.2" r="0.5"/><rect class="cls-1" x="41.1" y="14.2" width="2.9" height="31.9" rx="0.8"/><polygon class="cls-1" points="42.4 2.8 43 2.9 43 5.9 42.4 5.9 42.4 2.8"/></g><g id="Mortarboard"><path class="cls-1" d="M43.7,5.3a3.5,3.5,0,0,1,1.7,1.5A3.1,3.1,0,0,1,44.2,11v3.2c1.2.2.6,1.1.8,6.6,6.9-.1,12.4,3.1,17.9,6.5a39.7,39.7,0,0,0,2.4-15.2L78,10.3c.4-.1.4-.7,0-.9L43.6,3A23,23,0,0,0,43.7,5.3Z"/><path class="cls-1" d="M41.8,2.7V5.3a3.1,3.1,0,0,0-.7,5.6v3.3c-1.3.2-.7.7-.8,6H37.8c1-7-1.8-11.9-6.8-17.9Z"/></g></g></g></g></svg>